<svg width="34" height="28" viewBox="0 0 34 28" fill="none" xmlns="http://www.w3.org/2000/svg">
<path d="M25.8125 0.875H2.1875C1.83953 0.875405 1.50592 1.01382 1.25987 1.25987C1.01382 1.50592 0.875405 1.83953 0.875 2.1875V20.5625C0.875405 20.9105 1.01382 21.2441 1.25987 21.4901C1.50592 21.7362 1.83953 21.8746 2.1875 21.875H13.125V25.375H8.75V27.125H19.25V25.375H14.875V21.875H25.8125C26.1605 21.8746 26.4941 21.7362 26.7401 21.4901C26.9862 21.2441 27.1246 20.9105 27.125 20.5625V2.1875C27.1246 1.83953 26.9862 1.50592 26.7401 1.25987C26.4941 1.01382 26.1605 0.875405 25.8125 0.875ZM25.375 20.125H2.625V14.875H25.375V20.125ZM25.375 13.125H2.625V2.625H25.375V13.125Z" fill="#393939"/>
<path d="M21.875 16.625H23.625V18.375H21.875V16.625Z" fill="#393939"/>
</svg>
