<svg width="34" height="28" viewBox="0 0 34 28" fill="none" xmlns="http://www.w3.org/2000/svg">
<path d="M24.8512 15.2555L17.9375 13.3349V12.8873C19.2143 12.247 20.2377 11.1945 20.842 9.90018C21.4462 8.60587 21.5959 7.14551 21.2669 5.75551C20.9379 4.36551 20.1494 3.12723 19.0291 2.24111C17.9087 1.355 16.5221 0.872925 15.0937 0.872925C13.6653 0.872925 12.2787 1.355 11.1584 2.24111C10.0381 3.12723 9.24956 4.36551 8.92056 5.75551C8.59155 7.14551 8.74129 8.60587 9.34553 9.90018C9.94976 11.1945 10.9731 12.247 12.25 12.8873V17.0625H10.9146L9.90324 15.8266C9.07898 14.8192 7.89075 14.1775 6.59635 14.0406C5.30195 13.9038 4.00579 14.2828 2.9891 15.0955C2.81597 15.1618 2.66159 15.2692 2.53931 15.4085C2.41703 15.5478 2.33054 15.7148 2.28731 15.8951C2.24409 16.0753 2.24543 16.2634 2.29124 16.443C2.33704 16.6226 2.42591 16.7884 2.55018 16.9259L11.7624 27.125H25.8125V16.52C25.8119 16.2333 25.7176 15.9546 25.5441 15.7264C25.3706 15.4981 25.1273 15.3328 24.8512 15.2555ZM10.5 7.21874C10.4993 6.44022 10.6966 5.67431 11.0731 4.99292C11.4497 4.31153 11.9933 3.73703 12.6528 3.32335C13.3123 2.90968 14.0662 2.67041 14.8435 2.628C15.6209 2.5856 16.3963 2.74146 17.0969 3.08094C17.7975 3.42043 18.4003 3.9324 18.8488 4.56879C19.2972 5.20517 19.5766 5.94509 19.6606 6.71906C19.7447 7.49304 19.6306 8.27567 19.3292 8.99348C19.0278 9.71128 18.5489 10.3407 17.9375 10.8227V7.21874C17.9375 6.46454 17.6379 5.74122 17.1046 5.20791C16.5713 4.6746 15.8479 4.37499 15.0937 4.37499C14.3395 4.37499 13.6162 4.6746 13.0829 5.20791C12.5496 5.74122 12.25 6.46454 12.25 7.21874V10.8227C11.7046 10.3935 11.2638 9.84614 10.9607 9.22188C10.6575 8.59762 10.5 7.91271 10.5 7.21874ZM24.0625 25.375H12.5398L4.32801 16.2832C4.98801 15.8521 5.78408 15.6801 6.5632 15.8003C7.34232 15.9205 8.04952 16.3245 8.54885 16.9345L10.0856 18.8125H14V7.21874C14 6.92866 14.1152 6.65046 14.3203 6.44535C14.5255 6.24023 14.8037 6.12499 15.0937 6.12499C15.3838 6.12499 15.662 6.24023 15.8671 6.44535C16.0723 6.65046 16.1875 6.92866 16.1875 7.21874V14.6651L24.0625 16.8525V25.375Z" fill="#393939"/>
</svg>
