<svg width="34" height="28" viewBox="0 0 34 28" fill="none" xmlns="http://www.w3.org/2000/svg">
<path d="M25.8125 4.375H2.1875C1.83953 4.37541 1.50592 4.51382 1.25987 4.75987C1.01382 5.00592 0.875405 5.33953 0.875 5.6875V18.8125C0.875405 19.1605 1.01382 19.4941 1.25987 19.7401C1.50592 19.9862 1.83953 20.1246 2.1875 20.125H25.8125C26.1605 20.1246 26.4941 19.9862 26.7401 19.7401C26.9862 19.4941 27.1246 19.1605 27.125 18.8125V5.6875C27.1246 5.33953 26.9862 5.00592 26.7401 4.75987C26.4941 4.51382 26.1605 4.37541 25.8125 4.375ZM25.375 18.375H2.625V6.125H25.375V18.375Z" fill="#393939"/>
<path d="M7.875 14.875H16.625V16.625H7.875V14.875ZM4.375 14.875H6.125V16.625H4.375V14.875ZM21.875 14.875H23.625V16.625H21.875V14.875ZM18.375 14.875H20.125V16.625H18.375V14.875ZM20.125 11.375H21.875V13.125H20.125V11.375ZM16.625 11.375H18.375V13.125H16.625V11.375ZM13.125 11.375H14.875V13.125H13.125V11.375ZM9.625 11.375H11.375V13.125H9.625V11.375ZM6.125 11.375H7.875V13.125H6.125V11.375ZM18.375 7.875H20.125V9.625H18.375V7.875ZM21.875 7.875H23.625V9.625H21.875V7.875ZM14.875 7.875H16.625V9.625H14.875V7.875ZM11.375 7.875H13.125V9.625H11.375V7.875ZM7.875 7.875H9.625V9.625H7.875V7.875ZM4.375 7.875H6.125V9.625H4.375V7.875Z" fill="#393939"/>
</svg>
