<svg width="34" height="28" viewBox="0 0 34 28" fill="none" xmlns="http://www.w3.org/2000/svg">
<path d="M4.375 27.1205L23.6271 27.1249H23.6275C23.7999 27.1249 23.9706 27.0909 24.1298 27.0249C24.2891 26.959 24.4338 26.8622 24.5557 26.7403C24.6776 26.6184 24.7742 26.4736 24.8402 26.3144C24.9061 26.1551 24.94 25.9843 24.94 25.812L24.9375 19.3852C24.9378 19.1192 24.8569 18.8595 24.7057 18.6407L18.8125 10.0904V6.61719H21C21.348 6.61678 21.6816 6.47837 21.9276 6.23232C22.1737 5.98626 22.3121 5.65266 22.3125 5.30469V0.875H5.6875V5.30469C5.68789 5.65266 5.8263 5.98628 6.07236 6.23233C6.31841 6.47839 6.65202 6.6168 7 6.61719H9.18296V10.1511L3.29635 18.6394C3.14375 18.8589 3.06213 19.1199 3.0625 19.3872V25.808C3.06292 26.156 3.20134 26.4896 3.44739 26.7356C3.69344 26.9817 4.02703 27.1201 4.375 27.1205ZM10.933 10.6986V4.86719H7.4375V2.625H20.5625V4.86719H17.0625V10.6351L20.5879 15.75H7.42979L10.933 10.6986ZM4.8125 19.524L6.21617 17.5H21.7941L23.1875 19.5219L23.1895 25.375L4.8125 25.3706V19.524Z" fill="#393939"/>
</svg>
