<svg width="34" height="28" viewBox="0 0 34 28" fill="none" xmlns="http://www.w3.org/2000/svg">
<path d="M22.3125 16.625C20.5693 16.6267 18.8624 17.1236 17.3908 18.0579C15.9191 18.9922 14.7432 20.3255 14 21.9023C13.2568 20.3255 12.0809 18.9922 10.6092 18.0579C9.13757 17.1236 7.43071 16.6267 5.6875 16.625H0.875V17.5C0.875 22.566 4.99647 26.6875 10.0625 26.6875H17.9375C23.0035 26.6875 27.125 22.566 27.125 17.5V16.625H22.3125ZM10.0625 24.9375C6.25729 24.9375 3.11041 22.0654 2.67619 18.375H5.6875C9.49271 18.375 12.6396 21.2471 13.0738 24.9375H10.0625ZM17.9375 24.9375H14.9262C15.3604 21.2471 18.5073 18.375 22.3125 18.375H25.3238C24.8896 22.0654 21.7427 24.9375 17.9375 24.9375Z" fill="#393939"/>
<path d="M9.25454 14.3704C9.42003 15.3544 9.88946 16.2619 10.597 16.9655L10.8533 17.2218H11.2157C12.2135 17.2245 13.1871 16.9148 13.9999 16.336C14.8127 16.9149 15.7864 17.2247 16.7842 17.222H17.1466L17.4029 16.9657C18.1104 16.2621 18.5798 15.3546 18.7453 14.3706C19.7293 14.2051 20.6368 13.7357 21.3404 13.0282L21.5967 12.7719V12.4095C21.5995 11.4116 21.2898 10.4379 20.711 9.625C21.2898 8.81222 21.5996 7.83858 21.5969 6.84075V6.47834L21.3406 6.22202C20.637 5.51453 19.7295 5.0451 18.7456 4.8796C18.5801 3.89561 18.1106 2.98814 17.4031 2.28452L17.1468 2.02825H16.7844C15.7865 2.02543 14.8128 2.33516 13.9999 2.91397C13.1872 2.33512 12.2135 2.02532 11.2157 2.02803H10.8533L10.597 2.2843C9.88946 2.98792 9.42003 3.8954 9.25454 4.87938C8.27055 5.04488 7.36307 5.51431 6.65946 6.2218L6.40319 6.47812V6.84053C6.40037 7.83841 6.7101 8.81213 7.28891 9.625C6.71006 10.4378 6.40026 11.4114 6.40297 12.4093V12.7717L6.65924 13.028C7.36291 13.7355 8.27048 14.205 9.25454 14.3704ZM9.05023 9.00632C8.56495 8.52396 8.25665 7.89194 8.17523 7.21257C8.71317 6.78959 9.37812 6.56054 10.0624 6.5625H10.9374V5.6875C10.9355 5.00326 11.1645 4.33837 11.5873 3.80045C12.2667 3.88187 12.8987 4.19017 13.3811 4.67545L13.9999 5.29375L14.6186 4.67507C15.101 4.18979 15.733 3.88149 16.4124 3.80007C16.8354 4.33807 17.0645 5.00311 17.0624 5.6875V6.5625H17.9374C18.6217 6.56053 19.2866 6.78952 19.8245 7.21241C19.7431 7.89178 19.4348 8.52379 18.9495 9.00616L18.3312 9.625L18.9499 10.2437C19.4352 10.7261 19.7435 11.3581 19.8249 12.0375C19.2869 12.4605 18.6218 12.6895 17.9374 12.6875H17.0624V13.5625C17.0644 14.2467 16.8354 14.9116 16.4125 15.4495C15.7332 15.3681 15.1012 15.0598 14.6188 14.5745L13.9999 13.9563L13.3812 14.5748C12.8988 15.0601 12.2668 15.3684 11.5875 15.4498C11.1645 14.9118 10.9354 14.2468 10.9374 13.5625V12.6875H10.0624C9.3782 12.6895 8.71331 12.4605 8.17539 12.0376C8.25681 11.3582 8.56511 10.7262 9.05039 10.2438L9.66869 9.625L9.05023 9.00632Z" fill="#393939"/>
</svg>
