<svg width="34" height="28" viewBox="0 0 34 28" fill="none" xmlns="http://www.w3.org/2000/svg">
<path d="M4.29089 13.8816L7.16319 16.2484L7.50553 17.0291L7.05097 20.7816L10.7556 20.4242L11.5497 20.7342L13.8817 23.7092L16.2485 20.8368L17.0291 20.4945L20.7817 20.9491L20.4243 17.2444L20.7342 16.4504L23.7092 14.1185L20.8369 11.7516L20.4945 10.9709L20.9491 7.21837L17.2445 7.57581L16.4504 7.26589L14.1185 4.29089L11.7516 7.16319L10.9709 7.50553L7.21843 7.05097L7.57586 10.7555L7.26584 11.5497L4.29089 13.8816ZM8.722 12.6317L9.3578 11.0031L9.16935 9.05024L11.2354 9.30049L12.8367 8.59835L14.0843 7.08422L15.3683 8.72217L16.9969 9.35769L18.9498 9.16929L18.6995 11.2354L19.4016 12.8366L20.9157 14.0843L19.2778 15.3683L18.6423 16.9968L18.8307 18.9498L16.7646 18.6995L15.1634 19.4016L13.9157 20.9158L12.6317 19.2779L11.0031 18.6422L9.05018 18.8307L9.30049 16.7645L8.59836 15.1633L7.08422 13.9156L8.722 12.6317Z" fill="#393939"/>
<path d="M25.8125 0.875H2.1875C1.83953 0.875405 1.50592 1.01382 1.25987 1.25987C1.01382 1.50592 0.875405 1.83953 0.875 2.1875V25.8125C0.875405 26.1605 1.01382 26.4941 1.25987 26.7401C1.50592 26.9862 1.83953 27.1246 2.1875 27.125H25.8125C26.1605 27.1246 26.4941 26.9862 26.7401 26.7401C26.9862 26.4941 27.1246 26.1605 27.125 25.8125V2.1875C27.1246 1.83953 26.9862 1.50592 26.7401 1.25987C26.4941 1.01382 26.1605 0.875405 25.8125 0.875ZM25.375 25.375H2.625V2.625H25.375V25.375Z" fill="#393939"/>
</svg>
