<svg width="34" height="28" viewBox="0 0 34 28" fill="none" xmlns="http://www.w3.org/2000/svg">
<path d="M3.77246 20.9257L13.1432 26.3358C13.4093 26.489 13.7111 26.5696 14.0182 26.5696C14.3253 26.5696 14.627 26.489 14.8932 26.3358L24.264 20.9256C24.5297 20.7716 24.7503 20.5506 24.9038 20.2847C25.0574 20.0187 25.1385 19.7172 25.139 19.4101V8.58976C25.1385 8.28267 25.0574 7.98109 24.9039 7.71514C24.7503 7.4492 24.5297 7.22819 24.264 7.07421L14.8932 1.66403C14.627 1.51089 14.3253 1.4303 14.0182 1.4303C13.7111 1.4303 13.4094 1.51089 13.1432 1.66403L3.77246 7.07421C3.50676 7.22818 3.28612 7.44919 3.13257 7.71514C2.97903 7.98109 2.89796 8.28267 2.89746 8.58976V19.4101C2.89796 19.7172 2.97903 20.0188 3.13257 20.2847C3.28612 20.5507 3.50676 20.7717 3.77246 20.9257ZM14.8932 3.68479L23.3889 8.58976V18.2901L14.8932 13.4882V3.68479ZM14.0154 15.0022L22.6098 19.86L14.0184 24.8201L5.4238 19.8583L14.0154 15.0022ZM4.64746 8.58976L13.1432 3.68479V13.4848L4.64746 18.2869V8.58976Z" fill="#393939"/>
</svg>
