<svg width="34" height="28" viewBox="0 0 34 28" fill="none" xmlns="http://www.w3.org/2000/svg">
<path d="M25.8125 2.1875H2.1875C1.83953 2.18791 1.50592 2.32632 1.25987 2.57237C1.01382 2.81842 0.875405 3.15203 0.875 3.5V24.5C0.875405 24.848 1.01382 25.1816 1.25987 25.4276C1.50592 25.6737 1.83953 25.8121 2.1875 25.8125H25.8125C26.1605 25.8121 26.4941 25.6737 26.7401 25.4276C26.9862 25.1816 27.1246 24.848 27.125 24.5V3.5C27.1246 3.15203 26.9862 2.81842 26.7401 2.57237C26.4941 2.32632 26.1605 2.18791 25.8125 2.1875ZM2.625 3.9375H7.875V7.875H2.625V3.9375ZM25.375 24.0625H2.625V9.625H25.375V24.0625ZM25.375 7.875H9.625V3.9375H25.375V7.875Z" fill="#393939"/>
</svg>
