<svg width="34" height="28" viewBox="0 0 34 28" fill="none" xmlns="http://www.w3.org/2000/svg">
<path d="M4.8125 1.75C4.12027 1.75 3.44358 1.95527 2.86801 2.33986C2.29243 2.72444 1.84383 3.27107 1.57892 3.91061C1.31402 4.55015 1.2447 5.25388 1.37975 5.93282C1.5148 6.61175 1.84814 7.23539 2.33763 7.72488C2.82711 8.21436 3.45075 8.5477 4.12969 8.68275C4.80862 8.8178 5.51235 8.74849 6.15189 8.48358C6.79143 8.21867 7.33806 7.77007 7.72265 7.1945C8.10723 6.61893 8.3125 5.94224 8.3125 5.25C8.31146 4.32206 7.94238 3.43243 7.28622 2.77628C6.63007 2.12013 5.74044 1.75104 4.8125 1.75ZM4.8125 7C4.46638 7 4.12804 6.89737 3.84025 6.70507C3.55247 6.51278 3.32817 6.23947 3.19571 5.9197C3.06326 5.59993 3.0286 5.24806 3.09613 4.90859C3.16365 4.56913 3.33032 4.25731 3.57506 4.01256C3.81981 3.76782 4.13163 3.60115 4.47109 3.53363C4.81056 3.4661 5.16243 3.50076 5.4822 3.63321C5.80197 3.76567 6.07528 3.98997 6.26757 4.27775C6.45987 4.56554 6.5625 4.90388 6.5625 5.25C6.56198 5.71397 6.37744 6.15879 6.04936 6.48686C5.72129 6.81494 5.27647 6.99948 4.8125 7ZM14 1.75C13.3078 1.75 12.6311 1.95527 12.0555 2.33986C11.4799 2.72444 11.0313 3.27107 10.7664 3.91061C10.5015 4.55015 10.4322 5.25388 10.5673 5.93282C10.7023 6.61175 11.0356 7.23539 11.5251 7.72488C12.0146 8.21436 12.6383 8.5477 13.3172 8.68275C13.9961 8.8178 14.6999 8.74849 15.3394 8.48358C15.9789 8.21867 16.5256 7.77007 16.9101 7.1945C17.2947 6.61893 17.5 5.94224 17.5 5.25C17.499 4.32206 17.1299 3.43243 16.4737 2.77628C15.8176 2.12013 14.9279 1.75104 14 1.75ZM14 7C13.6539 7 13.3155 6.89737 13.0278 6.70507C12.74 6.51278 12.5157 6.23947 12.3832 5.9197C12.2508 5.59993 12.2161 5.24806 12.2836 4.90859C12.3512 4.56913 12.5178 4.25731 12.7626 4.01256C13.0073 3.76782 13.3191 3.60115 13.6586 3.53363C13.9981 3.4661 14.3499 3.50076 14.6697 3.63321C14.9895 3.76567 15.2628 3.98997 15.4551 4.27775C15.6474 4.56554 15.75 4.90388 15.75 5.25C15.7495 5.71397 15.5649 6.15879 15.2369 6.48686C14.9088 6.81494 14.464 6.99948 14 7ZM23.1875 8.75C23.8797 8.75 24.5564 8.54473 25.132 8.16015C25.7076 7.77556 26.1562 7.22893 26.4211 6.58939C26.686 5.94985 26.7553 5.24612 26.6203 4.56719C26.4852 3.88825 26.1519 3.26461 25.6624 2.77513C25.1729 2.28564 24.5493 1.9523 23.8703 1.81725C23.1914 1.6822 22.4877 1.75152 21.8481 2.01642C21.2086 2.28133 20.6619 2.72993 20.2774 3.30551C19.8928 3.88108 19.6875 4.55777 19.6875 5.25C19.6885 6.17794 20.0576 7.06757 20.7138 7.72372C21.3699 8.37988 22.2596 8.74896 23.1875 8.75ZM23.1875 3.5C23.5336 3.5 23.872 3.60264 24.1598 3.79493C24.4475 3.98722 24.6718 4.26053 24.8043 4.58031C24.9367 4.90008 24.9714 5.25194 24.9039 5.59141C24.8364 5.93088 24.6697 6.2427 24.4249 6.48744C24.1802 6.73218 23.8684 6.89885 23.5289 6.96638C23.1894 7.0339 22.8376 6.99924 22.5178 6.86679C22.198 6.73434 21.9247 6.51004 21.7324 6.22225C21.5401 5.93446 21.4375 5.59612 21.4375 5.25C21.438 4.78603 21.6226 4.34122 21.9506 4.01314C22.2787 3.68506 22.7235 3.50052 23.1875 3.5ZM4.8125 10.5C4.12027 10.5 3.44358 10.7053 2.86801 11.0899C2.29243 11.4744 1.84383 12.0211 1.57892 12.6606C1.31402 13.3002 1.2447 14.0039 1.37975 14.6828C1.5148 15.3618 1.84814 15.9854 2.33763 16.4749C2.82711 16.9644 3.45075 17.2977 4.12969 17.4328C4.80862 17.5678 5.51235 17.4985 6.15189 17.2336C6.79143 16.9687 7.33806 16.5201 7.72265 15.9445C8.10723 15.3689 8.3125 14.6922 8.3125 14C8.31146 13.0721 7.94238 12.1824 7.28622 11.5263C6.63007 10.8701 5.74044 10.501 4.8125 10.5ZM4.8125 15.75C4.46638 15.75 4.12804 15.6474 3.84025 15.4551C3.55247 15.2628 3.32817 14.9895 3.19571 14.6697C3.06326 14.3499 3.0286 13.9981 3.09613 13.6586C3.16365 13.3191 3.33032 13.0073 3.57506 12.7626C3.81981 12.5178 4.13163 12.3512 4.47109 12.2836C4.81056 12.2161 5.16243 12.2508 5.4822 12.3832C5.80197 12.5157 6.07528 12.74 6.26757 13.0278C6.45987 13.3155 6.5625 13.6539 6.5625 14C6.56198 14.464 6.37744 14.9088 6.04936 15.2369C5.72129 15.5649 5.27647 15.7495 4.8125 15.75ZM14 10.5C13.3078 10.5 12.6311 10.7053 12.0555 11.0899C11.4799 11.4744 11.0313 12.0211 10.7664 12.6606C10.5015 13.3002 10.4322 14.0039 10.5673 14.6828C10.7023 15.3618 11.0356 15.9854 11.5251 16.4749C12.0146 16.9644 12.6383 17.2977 13.3172 17.4328C13.9961 17.5678 14.6999 17.4985 15.3394 17.2336C15.9789 16.9687 16.5256 16.5201 16.9101 15.9445C17.2947 15.3689 17.5 14.6922 17.5 14C17.499 13.0721 17.1299 12.1824 16.4737 11.5263C15.8176 10.8701 14.9279 10.501 14 10.5ZM14 15.75C13.6539 15.75 13.3155 15.6474 13.0278 15.4551C12.74 15.2628 12.5157 14.9895 12.3832 14.6697C12.2508 14.3499 12.2161 13.9981 12.2836 13.6586C12.3512 13.3191 12.5178 13.0073 12.7626 12.7626C13.0073 12.5178 13.3191 12.3512 13.6586 12.2836C13.9981 12.2161 14.3499 12.2508 14.6697 12.3832C14.9895 12.5157 15.2628 12.74 15.4551 13.0278C15.6474 13.3155 15.75 13.6539 15.75 14C15.7495 14.464 15.5649 14.9088 15.2369 15.2369C14.9088 15.5649 14.464 15.7495 14 15.75ZM23.1875 10.5C22.4953 10.5 21.8186 10.7053 21.243 11.0899C20.6674 11.4744 20.2188 12.0211 19.9539 12.6606C19.689 13.3002 19.6197 14.0039 19.7548 14.6828C19.8898 15.3618 20.2231 15.9854 20.7126 16.4749C21.2021 16.9644 21.8258 17.2977 22.5047 17.4328C23.1836 17.5678 23.8874 17.4985 24.5269 17.2336C25.1664 16.9687 25.7131 16.5201 26.0976 15.9445C26.4822 15.3689 26.6875 14.6922 26.6875 14C26.6865 13.0721 26.3174 12.1824 25.6612 11.5263C25.0051 10.8701 24.1154 10.501 23.1875 10.5ZM23.1875 15.75C22.8414 15.75 22.503 15.6474 22.2153 15.4551C21.9275 15.2628 21.7032 14.9895 21.5707 14.6697C21.4383 14.3499 21.4036 13.9981 21.4711 13.6586C21.5387 13.3191 21.7053 13.0073 21.9501 12.7626C22.1948 12.5178 22.5066 12.3512 22.8461 12.2836C23.1856 12.2161 23.5374 12.2508 23.8572 12.3832C24.177 12.5157 24.4503 12.74 24.6426 13.0278C24.8349 13.3155 24.9375 13.6539 24.9375 14C24.937 14.464 24.7524 14.9088 24.4244 15.2369C24.0963 15.5649 23.6515 15.7495 23.1875 15.75ZM4.8125 19.25C4.12027 19.25 3.44358 19.4553 2.86801 19.8399C2.29243 20.2244 1.84383 20.7711 1.57892 21.4106C1.31402 22.0502 1.2447 22.7539 1.37975 23.4328C1.5148 24.1118 1.84814 24.7354 2.33763 25.2249C2.82711 25.7144 3.45075 26.0477 4.12969 26.1828C4.80862 26.3178 5.51235 26.2485 6.15189 25.9836C6.79143 25.7187 7.33806 25.2701 7.72265 24.6945C8.10723 24.1189 8.3125 23.4422 8.3125 22.75C8.31146 21.8221 7.94238 20.9324 7.28622 20.2763C6.63007 19.6201 5.74044 19.251 4.8125 19.25ZM4.8125 24.5C4.46638 24.5 4.12804 24.3974 3.84025 24.2051C3.55247 24.0128 3.32817 23.7395 3.19571 23.4197C3.06326 23.0999 3.0286 22.7481 3.09613 22.4086C3.16365 22.0691 3.33032 21.7573 3.57506 21.5126C3.81981 21.2678 4.13163 21.1012 4.47109 21.0336C4.81056 20.9661 5.16243 21.0008 5.4822 21.1332C5.80197 21.2657 6.07528 21.49 6.26757 21.7778C6.45987 22.0655 6.5625 22.4039 6.5625 22.75C6.56198 23.214 6.37744 23.6588 6.04936 23.9869C5.72129 24.3149 5.27647 24.4995 4.8125 24.5ZM14 19.25C13.3078 19.25 12.6311 19.4553 12.0555 19.8399C11.4799 20.2244 11.0313 20.7711 10.7664 21.4106C10.5015 22.0502 10.4322 22.7539 10.5673 23.4328C10.7023 24.1118 11.0356 24.7354 11.5251 25.2249C12.0146 25.7144 12.6383 26.0477 13.3172 26.1828C13.9961 26.3178 14.6999 26.2485 15.3394 25.9836C15.9789 25.7187 16.5256 25.2701 16.9101 24.6945C17.2947 24.1189 17.5 23.4422 17.5 22.75C17.499 21.8221 17.1299 20.9324 16.4737 20.2763C15.8176 19.6201 14.9279 19.251 14 19.25ZM14 24.5C13.6539 24.5 13.3155 24.3974 13.0278 24.2051C12.74 24.0128 12.5157 23.7395 12.3832 23.4197C12.2508 23.0999 12.2161 22.7481 12.2836 22.4086C12.3512 22.0691 12.5178 21.7573 12.7626 21.5126C13.0073 21.2678 13.3191 21.1012 13.6586 21.0336C13.9981 20.9661 14.3499 21.0008 14.6697 21.1332C14.9895 21.2657 15.2628 21.49 15.4551 21.7778C15.6474 22.0655 15.75 22.4039 15.75 22.75C15.7495 23.214 15.5649 23.6588 15.2369 23.9869C14.9088 24.3149 14.464 24.4995 14 24.5ZM23.1875 19.25C22.4953 19.25 21.8186 19.4553 21.243 19.8399C20.6674 20.2244 20.2188 20.7711 19.9539 21.4106C19.689 22.0502 19.6197 22.7539 19.7548 23.4328C19.8898 24.1118 20.2231 24.7354 20.7126 25.2249C21.2021 25.7144 21.8258 26.0477 22.5047 26.1828C23.1836 26.3178 23.8874 26.2485 24.5269 25.9836C25.1664 25.7187 25.7131 25.2701 26.0976 24.6945C26.4822 24.1189 26.6875 23.4422 26.6875 22.75C26.6865 21.8221 26.3174 20.9324 25.6612 20.2763C25.0051 19.6201 24.1154 19.251 23.1875 19.25ZM23.1875 24.5C22.8414 24.5 22.503 24.3974 22.2153 24.2051C21.9275 24.0128 21.7032 23.7395 21.5707 23.4197C21.4383 23.0999 21.4036 22.7481 21.4711 22.4086C21.5387 22.0691 21.7053 21.7573 21.9501 21.5126C22.1948 21.2678 22.5066 21.1012 22.8461 21.0336C23.1856 20.9661 23.5374 21.0008 23.8572 21.1332C24.177 21.2657 24.4503 21.49 24.6426 21.7778C24.8349 22.0655 24.9375 22.4039 24.9375 22.75C24.937 23.214 24.7524 23.6588 24.4244 23.9869C24.0963 24.3149 23.6515 24.4995 23.1875 24.5Z" fill="#393939"/>
</svg>
