<svg width="34" height="28" viewBox="0 0 34 28" fill="none" xmlns="http://www.w3.org/2000/svg">
<path d="M6.125 10.5C6.125 9.98082 5.97105 9.47331 5.68261 9.04163C5.39417 8.60995 4.9842 8.2735 4.50455 8.07482C4.02489 7.87614 3.49709 7.82415 2.98789 7.92544C2.47869 8.02673 2.01096 8.27673 1.64385 8.64385C1.27673 9.01096 1.02673 9.47869 0.92544 9.98789C0.824154 10.4971 0.876137 11.0249 1.07482 11.5045C1.2735 11.9842 1.60995 12.3942 2.04163 12.6826C2.47331 12.971 2.98083 13.125 3.5 13.125C4.19595 13.1242 4.86317 12.8474 5.35528 12.3553C5.84739 11.8632 6.12421 11.1959 6.125 10.5ZM2.625 10.5C2.625 10.3269 2.67632 10.1578 2.77247 10.0139C2.86861 9.86998 3.00527 9.75783 3.16515 9.69161C3.32504 9.62538 3.50097 9.60805 3.67071 9.64181C3.84044 9.67558 3.99635 9.75891 4.11872 9.88128C4.24109 10.0037 4.32443 10.1596 4.35819 10.3293C4.39195 10.499 4.37462 10.675 4.3084 10.8348C4.24217 10.9947 4.13002 11.1314 3.98613 11.2275C3.84223 11.3237 3.67306 11.375 3.5 11.375C3.26802 11.3747 3.04562 11.2825 2.88159 11.1184C2.71755 10.9544 2.62528 10.732 2.625 10.5ZM17.5 13.125C18.0192 13.125 18.5267 12.971 18.9584 12.6826C19.3901 12.3942 19.7265 11.9842 19.9252 11.5045C20.1239 11.0249 20.1758 10.4971 20.0746 9.98789C19.9733 9.47869 19.7233 9.01096 19.3562 8.64385C18.989 8.27673 18.5213 8.02673 18.0121 7.92544C17.5029 7.82415 16.9751 7.87614 16.4955 8.07482C16.0158 8.2735 15.6058 8.60995 15.3174 9.04163C15.029 9.47331 14.875 9.98082 14.875 10.5C14.8758 11.1959 15.1526 11.8632 15.6447 12.3553C16.1368 12.8474 16.8041 13.1242 17.5 13.125ZM17.5 9.625C17.6731 9.625 17.8422 9.67632 17.9861 9.77246C18.13 9.86861 18.2422 10.0053 18.3084 10.1652C18.3746 10.325 18.392 10.501 18.3582 10.6707C18.3244 10.8404 18.2411 10.9963 18.1187 11.1187C17.9963 11.2411 17.8404 11.3244 17.6707 11.3582C17.501 11.392 17.325 11.3746 17.1652 11.3084C17.0053 11.2422 16.8686 11.13 16.7725 10.9861C16.6763 10.8422 16.625 10.6731 16.625 10.5C16.6253 10.268 16.7176 10.0456 16.8816 9.88159C17.0456 9.71755 17.268 9.62528 17.5 9.625ZM10.0625 6.125C10.5817 6.125 11.0892 5.97105 11.5209 5.68261C11.9526 5.39417 12.289 4.9842 12.4877 4.50455C12.6864 4.02489 12.7383 3.49709 12.6371 2.98789C12.5358 2.47869 12.2858 2.01096 11.9187 1.64385C11.5515 1.27673 11.0838 1.02673 10.5746 0.92544C10.0654 0.824154 9.53761 0.876137 9.05796 1.07482C8.5783 1.2735 8.16833 1.60995 7.87989 2.04163C7.59145 2.47331 7.4375 2.98083 7.4375 3.5C7.4383 4.19595 7.71511 4.86317 8.20722 5.35528C8.69934 5.84739 9.36655 6.12421 10.0625 6.125ZM10.0625 2.625C10.2356 2.625 10.4047 2.67632 10.5486 2.77247C10.6925 2.86861 10.8047 3.00527 10.8709 3.16515C10.9371 3.32504 10.9545 3.50097 10.9207 3.67071C10.8869 3.84044 10.8036 3.99635 10.6812 4.11872C10.5588 4.24109 10.4029 4.32443 10.2332 4.35819C10.0635 4.39195 9.88754 4.37462 9.72765 4.3084C9.56777 4.24217 9.43111 4.13002 9.33496 3.98613C9.23882 3.84223 9.1875 3.67306 9.1875 3.5C9.18778 3.26802 9.28005 3.04562 9.44409 2.88159C9.60812 2.71755 9.83052 2.62528 10.0625 2.625ZM24.5 7.875C23.9808 7.875 23.4733 8.02895 23.0416 8.31739C22.61 8.60583 22.2735 9.0158 22.0748 9.49546C21.8761 9.97511 21.8242 10.5029 21.9254 11.0121C22.0267 11.5213 22.2767 11.989 22.6438 12.3562C23.011 12.7233 23.4787 12.9733 23.9879 13.0746C24.4971 13.1758 25.0249 13.1239 25.5045 12.9252C25.9842 12.7265 26.3942 12.3901 26.6826 11.9584C26.971 11.5267 27.125 11.0192 27.125 10.5C27.1242 9.80405 26.8474 9.13684 26.3553 8.64472C25.8632 8.15261 25.196 7.8758 24.5 7.875ZM24.5 11.375C24.3269 11.375 24.1578 11.3237 24.0139 11.2275C23.87 11.1314 23.7578 10.9947 23.6916 10.8348C23.6254 10.675 23.6081 10.499 23.6418 10.3293C23.6756 10.1596 23.7589 10.0037 23.8813 9.88128C24.0037 9.75891 24.1596 9.67558 24.3293 9.64181C24.499 9.60805 24.675 9.62538 24.8348 9.69161C24.9947 9.75783 25.1314 9.86998 25.2275 10.0139C25.3237 10.1578 25.375 10.3269 25.375 10.5C25.3747 10.732 25.2825 10.9544 25.1184 11.1184C24.9544 11.2825 24.732 11.3747 24.5 11.375ZM24.5 6.125C25.0192 6.125 25.5267 5.97105 25.9584 5.68261C26.3901 5.39417 26.7265 4.9842 26.9252 4.50455C27.1239 4.02489 27.1758 3.49709 27.0746 2.98789C26.9733 2.47869 26.7233 2.01096 26.3562 1.64385C25.989 1.27673 25.5213 1.02673 25.0121 0.92544C24.5029 0.824154 23.9751 0.876137 23.4955 1.07482C23.0158 1.2735 22.6058 1.60995 22.3174 2.04163C22.029 2.47331 21.875 2.98083 21.875 3.5C21.8758 4.19595 22.1526 4.86317 22.6447 5.35528C23.1368 5.84739 23.8041 6.12421 24.5 6.125ZM24.5 2.625C24.6731 2.625 24.8422 2.67632 24.9861 2.77247C25.13 2.86861 25.2422 3.00527 25.3084 3.16515C25.3746 3.32504 25.392 3.50097 25.3582 3.67071C25.3244 3.84044 25.2411 3.99635 25.1187 4.11872C24.9963 4.24109 24.8404 4.32443 24.6707 4.35819C24.501 4.39195 24.325 4.37462 24.1652 4.3084C24.0053 4.24217 23.8686 4.13002 23.7725 3.98613C23.6763 3.84223 23.625 3.67306 23.625 3.5C23.6253 3.26802 23.7176 3.04562 23.8816 2.88159C24.0456 2.71755 24.268 2.62528 24.5 2.625ZM17.5 6.125C18.0192 6.125 18.5267 5.97105 18.9584 5.68261C19.3901 5.39417 19.7265 4.9842 19.9252 4.50455C20.1239 4.02489 20.1758 3.49709 20.0746 2.98789C19.9733 2.47869 19.7233 2.01096 19.3562 1.64385C18.989 1.27673 18.5213 1.02673 18.0121 0.92544C17.5029 0.824154 16.9751 0.876137 16.4955 1.07482C16.0158 1.2735 15.6058 1.60995 15.3174 2.04163C15.029 2.47331 14.875 2.98083 14.875 3.5C14.8758 4.19595 15.1526 4.86317 15.6447 5.35528C16.1368 5.84739 16.8041 6.12421 17.5 6.125ZM17.5 2.625C17.6731 2.625 17.8422 2.67632 17.9861 2.77247C18.13 2.86861 18.2422 3.00527 18.3084 3.16515C18.3746 3.32504 18.392 3.50097 18.3582 3.67071C18.3244 3.84044 18.2411 3.99635 18.1187 4.11872C17.9963 4.24109 17.8404 4.32443 17.6707 4.35819C17.501 4.39195 17.325 4.37462 17.1652 4.3084C17.0053 4.24217 16.8686 4.13002 16.7725 3.98613C16.6763 3.84223 16.625 3.67306 16.625 3.5C16.6253 3.26802 16.7176 3.04562 16.8816 2.88159C17.0456 2.71755 17.268 2.62528 17.5 2.625ZM20.5625 17.5C20.1112 17.4994 19.6675 17.6159 19.2747 17.8382C18.914 17.2722 18.3501 16.8661 17.699 16.7033C17.0479 16.5405 16.3592 16.6335 15.7747 16.9632C15.4558 16.4633 14.9771 16.0861 14.4166 15.893C13.856 15.7 13.2465 15.7024 12.6875 15.9V13.5625C12.6875 12.8663 12.4109 12.1986 11.9187 11.7063C11.4264 11.2141 10.7587 10.9375 10.0625 10.9375C9.36631 10.9375 8.69863 11.2141 8.20635 11.7063C7.71406 12.1986 7.4375 12.8663 7.4375 13.5625V18.8146C6.68121 18.2444 5.75962 17.9365 4.8125 17.9375C4.46453 17.9379 4.13092 18.0763 3.88487 18.3224C3.63882 18.5684 3.50041 18.902 3.5 19.25V27.125H5.25V19.724C5.86134 19.8282 6.41617 20.1451 6.81645 20.6188C7.21673 21.0924 7.43671 21.6924 7.4375 22.3125V23.1875H9.1875V13.5625C9.1875 13.3304 9.27969 13.1079 9.44378 12.9438C9.60788 12.7797 9.83044 12.6875 10.0625 12.6875C10.2946 12.6875 10.5171 12.7797 10.6812 12.9438C10.8453 13.1079 10.9375 13.3304 10.9375 13.5625V23.1875H12.6875V18.375C12.6875 18.1429 12.7797 17.9204 12.9438 17.7563C13.1079 17.5922 13.3304 17.5 13.5625 17.5C13.7946 17.5 14.0171 17.5922 14.1812 17.7563C14.3453 17.9204 14.4375 18.1429 14.4375 18.375V23.1875H16.1875V19.25C16.1875 19.0179 16.2797 18.7954 16.4438 18.6313C16.6079 18.4672 16.8304 18.375 17.0625 18.375C17.2946 18.375 17.5171 18.4672 17.6812 18.6313C17.8453 18.7954 17.9375 19.0179 17.9375 19.25V23.1875H19.6875V20.125C19.6875 19.8929 19.7797 19.6704 19.9438 19.5063C20.1079 19.3422 20.3304 19.25 20.5625 19.25C20.7946 19.25 21.0171 19.3422 21.1812 19.5063C21.3453 19.6704 21.4375 19.8929 21.4375 20.125V27.125H23.1875V20.125C23.1867 19.4291 22.9099 18.7618 22.4178 18.2697C21.9257 17.7776 21.2585 17.5008 20.5625 17.5Z" fill="#393939"/>
</svg>
