<svg width="34" height="28" viewBox="0 0 34 28" fill="none" xmlns="http://www.w3.org/2000/svg">
<path d="M24.0625 2.1875H3.9375C3.70544 2.1875 3.48288 2.27969 3.31878 2.44378C3.15469 2.60788 3.0625 2.83044 3.0625 3.0625V24.9375C3.0625 25.1696 3.15469 25.3921 3.31878 25.5562C3.48288 25.7203 3.70544 25.8125 3.9375 25.8125H24.0625C24.2946 25.8125 24.5171 25.7203 24.6812 25.5562C24.8453 25.3921 24.9375 25.1696 24.9375 24.9375V3.0625C24.9375 2.83044 24.8453 2.60788 24.6812 2.44378C24.5171 2.27969 24.2946 2.1875 24.0625 2.1875ZM23.1875 12.6875H20.5625V15.3125H23.1875V17.9375H20.5625V20.125H17.9375V17.9375H15.3125V20.125H12.6875V17.9375H10.0625V20.125H7.4375V17.9375H4.8125V15.3125H7.4375V12.6875H4.8125V3.9375H23.1875V12.6875Z" fill="#393939"/>
<path d="M7.4375 15.3125H10.0625V17.9375H7.4375V15.3125ZM10.0625 12.6875H12.6875V15.3125H10.0625V12.6875ZM12.6875 15.3125H15.3125V17.9375H12.6875V15.3125ZM15.3125 12.6875H17.9375V15.3125H15.3125V12.6875ZM17.9375 15.3125H20.5625V17.9375H17.9375V15.3125ZM7.4375 10.0625H10.0625V12.6875H7.4375V10.0625ZM12.6875 10.0625H15.3125V12.6875H12.6875V10.0625ZM17.9375 10.0625H20.5625V12.6875H17.9375V10.0625Z" fill="#393939"/>
</svg>
