<svg width="34" height="28" viewBox="0 0 34 28" fill="none" xmlns="http://www.w3.org/2000/svg">
<path d="M20.7812 0.875H7.21875C6.75478 0.875521 6.30996 1.06006 5.98189 1.38814C5.65381 1.71621 5.46927 2.16103 5.46875 2.625V25.375C5.46927 25.839 5.65381 26.2838 5.98189 26.6119C6.30996 26.9399 6.75478 27.1245 7.21875 27.125H20.7812C21.2452 27.1245 21.69 26.9399 22.0181 26.6119C22.3462 26.2838 22.5307 25.839 22.5312 25.375V2.625C22.5307 2.16103 22.3462 1.71621 22.0181 1.38814C21.69 1.06006 21.2452 0.875521 20.7812 0.875ZM20.7812 2.625V4.375H7.21875V2.625H20.7812ZM20.7812 6.125L20.7819 18.375H7.21875V6.125H20.7812ZM20.7812 25.375H7.21875V20.125H20.7821V25.375H20.7812Z" fill="#393939"/>
<path d="M13.125 21.875H14.875V23.625H13.125V21.875Z" fill="#393939"/>
</svg>
